<?xml version="1.0" encoding="UTF-8" standalone="no"?>
<svg
   width="200"
   height="200"
   viewBox="0 0 200 200"
   version="1.1"
   id="svg15"
   sodipodi:docname="logo.svg"
   inkscape:version="1.3.2 (091e20e, 2023-11-25)"
   xmlns:inkscape="http://www.inkscape.org/namespaces/inkscape"
   xmlns:sodipodi="http://sodipodi.sourceforge.net/DTD/sodipodi-0.dtd"
   xmlns="http://www.w3.org/2000/svg"
   xmlns:svg="http://www.w3.org/2000/svg">
  <defs
     id="defs15" />
  <sodipodi:namedview
     id="namedview15"
     pagecolor="#ffffff"
     bordercolor="#000000"
     borderopacity="0.25"
     inkscape:showpageshadow="2"
     inkscape:pageopacity="0.0"
     inkscape:pagecheckerboard="0"
     inkscape:deskcolor="#d1d1d1"
     inkscape:zoom="2.3155171"
     inkscape:cx="102.56888"
     inkscape:cy="109.26285"
     inkscape:window-width="1312"
     inkscape:window-height="477"
     inkscape:window-x="-84"
     inkscape:window-y="130"
     inkscape:window-maximized="0"
     inkscape:current-layer="svg15" />
  <rect
     style="fill:#000080"
     id="rect1"
     width="212.91139"
     height="212.47952"
     x="-1.2956069"
     y="-0.43186897" />
  <g
     id="g16"
     transform="matrix(0.29797469,0,0,0.29797469,288.69449,55.540596)"
     style="fill:#f9f9f9">
    <path
       d="m -478.44161,58.216032 c -46.62012,-7.44 -99.71,-11.41 -155,-11.41 -50.6001,0 -99.3501,3.32 -142.98,9.58 0.0103,-0.67005 0.02,-1.34 0.0498,-2.01 a 148.99943,148.99943 0 0 1 297.91015,1.82 c 0.0103,0.68 0.02,1.35 0.02,2.02 z"
       fill="#f9a826"
       id="path1-3"
       style="fill:#f9f9f9" />
    <g
       opacity="0.1"
       id="g2"
       transform="translate(-945.44161,-91.587958)"
       style="fill:#f9f9f9">
      <path
         d="M 601.28454,82.14432 A 149.04745,149.04745 0 0 0 432.35339,225.373 c -0.0303,0.67 -0.04,1.34 -0.0498,2.01 12.96191,-1.85981 26.38476,-3.4535 40.165,-4.78431 A 149.02172,149.02172 0 0 1 601.28454,82.14432 Z"
         transform="translate(-263.73425,-80.80301)"
         fill="#ffffff"
         id="path2-9"
         style="fill:#f9f9f9" />
    </g>
    <path
       d="m -413.26143,70.036032 a 600.121,600.121 0 0 0 -65.2002,-13.84 943.3639,943.3639 0 0 0 -108.73974,-10.45 c -15.17041,-0.62 -30.62012,-0.94 -46.24024,-0.94 -12.37988,0 -24.66015,0.2 -36.77,0.6 a 973.28988,973.28988 0 0 0 -106.16015,8.97 624.29224,624.29224 0 0 0 -77.25,15.66 c -59.21,16.37 -91.81983,38.309998 -91.81983,61.769998 0,23.46 32.60987,45.4 91.81983,61.77 41.64013,11.52 92.98,19.37 148.92041,22.97 23.08984,1.5 46.96,2.26 71.25976,2.26 24.37988,0 48.33008,-0.77 71.49024,-2.27 50.90966,-3.29 98.00976,-10.1 137.42968,-20 0.21,-0.06 0.41016,-0.11 0.62012,-0.16 2.66016,-0.66 5.27979,-1.35 7.87012,-2.04 0.92969,-0.26 1.84961,-0.51 2.77,-0.76 a 0.97843,0.97843 0 0 1 0.15967,-0.05 c 0.88037,-0.24 1.75,-0.49 2.62011,-0.73 1.74024,-0.5 3.46,-0.99 5.14991,-1.5 0.0801,-0.02 0.1499,-0.04 0.22021,-0.06 1.46973,-0.44 2.91016,-0.88 4.33984,-1.32 1.16993,-0.37 2.33008,-0.73 3.48,-1.1 q 1.26051,-0.405 2.49024,-0.81 c 0.6001,-0.2 1.18994,-0.39 1.77,-0.59 0.79,-0.26 1.58008,-0.53 2.35986,-0.8 0.33008,-0.11 0.66016,-0.22 0.98,-0.34 0.75,-0.25 1.48,-0.51 2.21,-0.77 0.79,-0.28 1.58008,-0.57 2.35987,-0.85 0.65039,-0.23 1.30029,-0.47 1.93994,-0.71 0.54,-0.21 1.07031,-0.41 1.61035,-0.61 1.46973,-0.55 2.91016,-1.12006 4.33008,-1.68 0.71,-0.29 1.41992,-0.57 2.11963,-0.86 0.68994,-0.28 1.39013,-0.57 2.07031,-0.86 q 1.67944,-0.70506 3.2998,-1.41 c 0.52,-0.24 1.0503,-0.47 1.56006,-0.68994 0.39014,-0.18 0.77,-0.35 1.16016,-0.53 0.27978,-0.12 0.56006,-0.25 0.83008,-0.38 1.00976,-0.46 2.00976,-0.93 2.98974,-1.4 q 5.64039,-2.7 10.52979,-5.52 c 20.45019,-11.71 31.24023,-24.7 31.24023,-38.2 -6e-5,-23.46006 -32.60992,-45.400058 -91.81988,-61.770058 z m -0.54,121.619998 c -41.68994,11.53 -93.16992,19.38 -149.26026,22.95 -22.81005,1.45 -46.38964,2.2 -70.37988,2.2 -23.91015,0 -47.41015,-0.74 -70.1499,-2.19 -56.18018,-3.56 -107.74023,-11.41 -149.49023,-22.96 -58.27,-16.12 -90.35987,-37.37 -90.35987,-59.85 a 24.11774,24.11774 0 0 1 0.74024,-5.89 c 5.09961,-20.28 36.46972,-39.259998 89.61963,-53.959998 a 623.80606,623.80606 0 0 1 76.66015,-15.57 976.02713,976.02713 0 0 1 106.79981,-9 q 17.88061,-0.585 36.18017,-0.58 c 15.41016,0 30.6499,0.31 45.62988,0.91 a 941.36713,941.36713 0 0 1 109.37012,10.5 598.85754,598.85754 0 0 1 64.6401,13.74 c 53.14014,14.7 84.5,33.669998 89.60986,53.939998 a 23.82213,23.82213 0 0 1 0.75,5.91 c 0,22.48 -32.08984,43.73 -90.35986,59.85 z"
       fill="#3f3d56"
       id="path3-9"
       style="fill:#f9f9f9" />
    <path
       d="m -322.01143,132.71603 c 0,13.36005 -11.01026,26 -30.67041,37.29 -3.26953,1.88 -6.78955,3.72 -10.52979,5.52 -0.98,0.47 -1.98,0.94 -2.98974,1.4 -0.27,0.13 -0.5503,0.26 -0.83008,0.38 -0.39014,0.18 -0.77,0.35 -1.16016,0.53 -0.50976,0.22 -1.04,0.45 -1.56006,0.68994 q -1.6201,0.705 -3.2998,1.41 c -0.68018,0.29 -1.38037,0.58 -2.07031,0.86 -0.69971,0.29 -1.40967,0.57 -2.11963,0.86 -1.41992,0.56 -2.86035,1.13 -4.33008,1.68 -0.54,0.2 -1.07031,0.4 -1.61035,0.61 -0.63965,0.24 -1.28955,0.48 -1.93994,0.71 -0.77979,0.28 -1.56983,0.57 -2.35987,0.85 -0.73,0.26 -1.46,0.52 -2.21,0.77 -0.31982,0.12006 -0.6499,0.23 -0.98,0.34 -0.77978,0.27 -1.56982,0.54 -2.35986,0.8 -0.58008,0.2 -1.16992,0.39 -1.77,0.59 q -1.23046,0.40494 -2.49024,0.81 c -1.1499,0.37 -2.31,0.73 -3.48,1.1 -1.42968,0.44 -2.87011,0.88 -4.33984,1.32 -0.0703,0.02 -0.14014,0.04 -0.22021,0.06 -1.68995,0.51 -3.40967,1 -5.14991,1.5 -0.87011,0.24 -1.73974,0.49 -2.62011,0.73 a 0.97843,0.97843 0 0 0 -0.15967,0.05 c -0.92041,0.25 -1.84033,0.5 -2.77,0.76 -2.58008,0.68 -5.21,1.37 -7.87012,2.04 -0.21,0.05 -0.41016,0.1 -0.62012,0.16 -38.35009,9.58 -85.3999,16.56 -137.46972,19.93 -22.81006,1.47 -46.59033,2.25 -71.02,2.25 -24.6499,0 -48.63037,-0.79 -71.62012,-2.29 -137.24023,-8.95 -239.37988,-43.03 -239.37988,-83.71 a 25.07169,25.07169 0 0 1 1.11963,-7.3 c 0.0601,0.17 0.12011,0.33 0.19043,0.5 14.26953,37.48 115.54,67.77 246.93994,75.16 20.12988,1.13995 40.98,1.73 62.31982,1.73 21.43018,0 42.35987,-0.6 62.56983,-1.74 131.29,-7.42 232.46045,-37.72 246.68017,-75.17 q 0.36036,-0.90006 0.62988,-1.8 a 25.30451,25.30451 0 0 1 1.55032,8.62006 z"
       fill="#3f3d56"
       id="path4-7"
       style="fill:#f9f9f9" />
    <path
       d="m -853.7723,121.95203 c -16.6427,0 -34.33068,-3.58057 -34.33068,-10.2168 0,-6.63623 17.688,-10.2168 34.33068,-10.2168 16.64268,0 34.33069,3.58057 34.33069,10.2168 0,6.63623 -17.68799,10.2168 -34.33069,10.2168 z m 0,-18.4336 c -19.053,0 -32.33068,4.33057 -32.33068,8.2168 0,3.88623 13.2777,8.2168 32.33068,8.2168 19.05298,0 32.33069,-4.33057 32.33069,-8.2168 0,-3.88623 -13.27771,-8.21681 -32.33069,-8.21681 z"
       fill="#3f3d56"
       id="path5-0"
       style="fill:#f9f9f9" />
    <path
       d="m -782.77242,168.95203 c -16.64258,0 -34.33056,-3.58057 -34.33056,-10.2168 0,-6.63623 17.688,-10.2168 34.33056,-10.2168 16.64282,0 34.33081,3.58057 34.33081,10.2168 0,6.63623 -17.68799,10.2168 -34.33081,10.2168 z m 0,-18.4336 c -19.05286,0 -32.33056,4.33057 -32.33056,8.2168 0,3.88623 13.2777,8.2168 32.33056,8.2168 19.05286,0 32.33081,-4.33057 32.33081,-8.2168 0,-3.88623 -13.27783,-8.21681 -32.33081,-8.21681 z"
       fill="#3f3d56"
       id="path6-3"
       style="fill:#f9f9f9" />
    <path
       d="m -413.77242,121.95203 c -16.64258,0 -34.33056,-3.58057 -34.33056,-10.2168 0,-6.63623 17.688,-10.2168 34.33056,-10.2168 16.64282,0 34.33081,3.58057 34.33081,10.2168 0,6.63623 -17.68799,10.2168 -34.33081,10.2168 z m 0,-18.4336 c -19.053,0 -32.33056,4.33057 -32.33056,8.2168 0,3.88623 13.27758,8.2168 32.33056,8.2168 19.05298,0 32.33081,-4.33057 32.33081,-8.2168 0,-3.88623 -13.27783,-8.21681 -32.33081,-8.21681 z"
       fill="#3f3d56"
       id="path7-9"
       style="fill:#f9f9f9" />
    <path
       d="m -484.77242,168.95203 c -16.64258,0 -34.33056,-3.58057 -34.33056,-10.2168 0,-6.63623 17.688,-10.2168 34.33056,-10.2168 16.64282,0 34.33081,3.58057 34.33081,10.2168 0,6.63623 -17.68799,10.2168 -34.33081,10.2168 z m 0,-18.4336 c -19.053,0 -32.33056,4.33057 -32.33056,8.2168 0,3.88623 13.27758,8.2168 32.33056,8.2168 19.05298,0 32.33081,-4.33057 32.33081,-8.2168 0,-3.88623 -13.27783,-8.21681 -32.33081,-8.21681 z"
       fill="#3f3d56"
       id="path8-8"
       style="fill:#f9f9f9" />
    <path
       d="m -633.77242,190.95203 c -16.64258,0 -34.33056,-3.58057 -34.33056,-10.2168 0,-6.63623 17.688,-10.2168 34.33056,-10.2168 16.64282,0 34.33081,3.58057 34.33081,10.2168 0,6.63623 -17.68799,10.2168 -34.33081,10.2168 z m 0,-18.4336 c -19.053,0 -32.33056,4.33057 -32.33056,8.2168 0,3.88623 13.27758,8.2168 32.33056,8.2168 19.05298,0 32.33081,-4.33057 32.33081,-8.2168 0,-3.88623 -13.27783,-8.21681 -32.33081,-8.21681 z"
       fill="#3f3d56"
       id="path9-6"
       style="fill:#f9f9f9" />
    <text
       xml:space="preserve"
       style="font-size:64px;font-family:Nasalization;-inkscape-font-specification:Nasalization;fill:#f9f9f9"
       x="-800.08167"
       y="131.89967"
       id="text28"><tspan
         sodipodi:role="line"
         id="tspan28"
         x="-800.08167"
         y="131.89967">BLUEMCS</tspan></text>
  </g>
</svg>
